<svg width="29" height="29" viewBox="0 0 29 29" fill="none" xmlns="http://www.w3.org/2000/svg">
    <path d="M0 25C0 27.2091 1.79086 29 4 29L25 29C27.2091 29 29 27.2091 29 25L29 4C29 1.79086 27.2091 0 25 0L4 0C1.79086 0 0 1.79086 0 4L0 25Z" fill="#1A1A18"/>
    <path fill-rule="evenodd" clip-rule="evenodd" d="M18.9666 5.09914C19.413 5.48976 19.4582 6.16832 19.0676 6.61474L12.168 14.5L19.0676 22.3853C19.4582 22.8318 19.413 23.5103 18.9666 23.9009C18.5201 24.2916 17.8416 24.2463 17.451 23.7999L9.93246 15.2073C9.57812 14.8024 9.57812 14.1977 9.93246 13.7928L17.451 5.20018C17.8416 4.75376 18.5201 4.70852 18.9666 5.09914Z" fill="white"/>
</svg>
